<svg version="1.2" xmlns="http://www.w3.org/2000/svg" viewBox="-56 -82 120 120" width="120" height="120"><style>.a{fill:#0072ce}.b{fill:none;stroke:#00a1ff;stroke-linejoin:round;stroke-width:8}.c{fill:#ffb000}.d{fill:#004a8f}</style><path class="a" d="m-40-62h88c8.8 0 16 7.2 16 16v48c0 8.8-7.2 16-16 16h-88c-8.8 0-16-7.2-16-16v-48c0-8.8 7.2-16 16-16z"/><path class="b" d="m-48-52l51 42.5 51.1-42.5"/><path class="c" d="m4 14c-15.5 0-28-12.5-28-28 0-15.5 12.5-28 28-28 15.5 0 28 12.5 28 28 0 15.5-12.5 28-28 28z"/><path class="d" d="m-16-28q20-10 40 0-8 20 0 30-20 10-40 0 10-10 0-30z"/></svg>