<svg version="1.2" xmlns="http://www.w3.org/2000/svg" viewBox="0 0 509 80" width="509" height="80"><style>.a{fill:#0072ce}.b{fill:none;stroke:#00a1ff;stroke-linejoin:round;stroke-width:8}.c{fill:#ffb000}.d{fill:#004a8f}</style><path class="a" d="m16 0h88c8.8 0 16 7.2 16 16v48c0 8.8-7.2 16-16 16h-88c-8.8 0-16-7.2-16-16v-48c0-8.8 7.2-16 16-16z"/><path class="b" d="m8 10l51 42.5 51.1-42.5"/><path class="c" d="m60 76c-15.5 0-28-12.5-28-28 0-15.5 12.5-28 28-28 15.5 0 28 12.5 28 28 0 15.5-12.5 28-28 28z"/><path class="d" d="m40 34q20-10 40 0-8 20 0 30-20 10-40 0 10-10 0-30z"/><path fill-rule="evenodd" class="a" d="m158.6 61l-10.6-20.6-2.7-6.2-1.3 6.2-4.1 20.6h-6.6l9.1-44.1h0.7l12.1 23.8 3.6 8 3.6-8 11.9-23.8h0.7l9.4 44.1h-6.6l-4.4-20.6-1.3-6.2-2.4 6.2-10.7 20.6zm43.8 0.6q-3.7 0-6.9-1.7-3.1-1.8-5-5.1-1.9-3.3-1.9-7.7 0-4.3 1.6-7.5 1.7-3.3 4.8-5.1 3-1.8 7.2-1.8 2.4 0 4.5 0.9 2.1 0.8 3.5 2.1 1.4 1.2 1.9 2.4l0.1-4.6h6.2v27.5h-6.1l-0.1-4.9q-1 2.2-3.7 3.9-2.7 1.6-6.1 1.6zm1.1-5.4q3.4 0 5.7-2.3 2.4-2.4 2.4-6.3v-0.4q0-2.6-1.1-4.6-1.1-2.1-2.9-3.2-1.9-1.1-4.1-1.1-3.9 0-6 2.5-2.1 2.4-2.1 6.4 0 4 2.1 6.5 2.1 2.5 6 2.5zm23.2 4.8v-27.5h6.7v27.5zm3.3-32.7q-1.8 0-3.1-1.3-1.3-1.2-1.3-3.1 0-1.7 1.3-2.9 1.3-1.2 3.1-1.2 1.8 0 3.1 1.2 1.2 1.2 1.2 2.9 0 1.9-1.2 3.1-1.2 1.3-3.1 1.3zm13.8 32.7v-44.1h6.4v44.1zm31.4-44.2h0.6l21.3 44.2h-7.8l-3.8-8.6h-20.2l-3.8 8.6h-7.5zm0.3 12.8l-2.6 6-4.8 10.7h14.9l-4.8-10.7-2.5-6zm24.8 31.4v-27.6h6.4v5q1.4-2.8 3.9-4.3 2.6-1.4 5.9-1.4 7.3 0.1 9 5.1 1.3-2.3 4-3.7 2.6-1.4 5.6-1.4 4.3 0 6.5 1.7 2.2 1.6 2.9 4.7 0.8 3 0.8 8.1v13.8h-6.5v-13.9q0-4.9-1-7-1-2.1-3.8-2.1-3.8 0-5.8 2.6-1.9 2.5-1.9 6.7v13.7h-6.5v-14.9q0-3.1-0.2-4.7-0.3-1.6-1.3-2.5-1.1-0.9-3.5-0.9-2.1 0-4 1.3-1.8 1.3-2.9 3.4-1.1 2.1-1.1 4.6v13.7zm66 0.6q-4.9 0-8.2-2-3.3-1.9-4.9-5.2-1.5-3.3-1.5-7.2 0-4.4 1.8-7.7 1.8-3.3 5.1-5 3.2-1.8 7.3-1.8 6.4 0 9.4 3.5 3.1 3.5 3.1 9.9 0 1.6-0.1 3.3h-19.8q0.6 3.7 2.5 5.3 2 1.6 5.5 1.6 2.9 0 4.7-0.4 1.9-0.5 3.5-1.4l1.9 4.7q-1.5 0.9-4 1.6-2.6 0.8-6.3 0.8zm-7.8-16.7h13.6q0.1-3.7-1.6-5.2-1.7-1.5-4.8-1.5-6.3 0-7.2 6.7zm7.2-16.6l-4.4-2.5 9.2-13.7 5.7 3.6zm19.4 32.7v-27.5h6.5v5.4q1-2.8 3.1-4.5 2.2-1.6 4.9-1.6 2 0 2.7 0.3l-0.9 6.6q-0.6-0.4-2.4-0.4-2.8 0-5.1 1.8-2.3 1.8-2.3 5.8v14.1zm22.7 0v-27.5h6.7v27.5zm3.3-32.7q-1.9 0-3.1-1.2-1.3-1.3-1.3-3.2 0-1.6 1.3-2.8 1.2-1.2 3.1-1.2 1.8 0 3 1.2 1.3 1.2 1.3 2.8 0 1.9-1.3 3.2-1.2 1.2-3 1.2zm25 33.3q-4 0-7.3-1.7-3.3-1.8-5.2-5.1-1.9-3.4-1.9-7.9 0-4.2 1.7-7.4 1.8-3.3 5-5 3.2-1.7 7.4-1.7 3.2 0 5.5 0.8 2.3 0.8 3.7 2l-2.9 5.2q-2.5-2.5-5.7-2.5-3.9 0-5.9 2.3-2 2.4-2 6.3 0 4.4 2.1 6.9 2.1 2.4 5.8 2.4 1.8 0 3.6-0.5 1.8-0.6 2.7-1.3l2.4 4.6q-1.3 1-3.7 1.8-2.4 0.8-5.3 0.8zm27.4 0q-3.7 0-6.9-1.7-3.1-1.8-5.1-5.1-1.8-3.3-1.8-7.6 0-4.4 1.6-7.6 1.7-3.2 4.7-5 3.1-1.8 7.2-1.8 2.4 0 4.5 0.8 2.1 0.8 3.6 2.1 1.4 1.2 1.9 2.4l0.1-4.6h6.2v27.5h-6.1l-0.1-4.8q-1.1 2.1-3.8 3.8-2.7 1.6-6 1.6zm1.1-5.4q3.4 0 5.7-2.3 2.4-2.4 2.4-6.3v-0.4q0-2.6-1.1-4.6-1.1-2-3-3.2-1.8-1.1-4-1.1-3.9 0-6 2.5-2.1 2.5-2.1 6.4 0 4 2.1 6.6 2.1 2.4 6 2.4zm33.2 5.4q-2.9 0-6-0.7-3.1-0.8-4.4-1.8l2.2-5.1q3.6 2.5 8.2 2.5 4.6 0 4.6-2.7 0-1.2-1-1.8-0.9-0.7-3.4-1.6l-2.3-0.8q-3.6-1.5-5.7-3.5-2.1-2-2.1-5.3 0-3.8 3-5.9 3-2.1 8-2.1 2.4 0 4.8 0.5 2.4 0.5 3.6 1.4l-2.3 5.1q-0.8-0.7-2.5-1.3-1.7-0.6-3.8-0.6-4.3 0-4.3 2.6 0 1.4 1.2 2.2 1.1 0.7 3.7 1.6 0.2 0.1 1.8 0.7 3.9 1.5 5.7 3.4 1.9 1.9 1.9 4.9 0 4.1-3.1 6.2-3.1 2.1-7.8 2.1z"/></svg>